# xmcd
#
# Track frame offsets: 
#        150
#        4635
#        31843
#        49535
#        85930
#        105520
#        125795
#        153993
#        193198
#        213600
#        243618
#        275638
#
# Disc length: 3981 seconds
#
# Revision: 0
# Processed by: cddbd v1.5.2PL0 Copyright (c) Steve Scherf et al.
# Submitted via: ExactAudioCopy v1.3
#
DISCID=a30f8b0c
DTITLE=Paul Lamb and The King Snakes - Fine Condition
DYEAR=1995
DGENRE=Harmonica Blues, Electric Blues
TTITLE0=One More Time
TTITLE1=Everyday I Have The Blues
TTITLE2=Come On Everybody
TTITLE3=Fine Condition
TTITLE4=Who Do You Think You Are
TTITLE5=Why Do You Treat Me So
TTITLE6=Texas Boogie
TTITLE7=I Ain't Asking Much
TTITLE8=Swing Out
TTITLE9=I Don't Need You Anymore
TTITLE10=Don't Lose Your Cool
TTITLE11=Good Rockin' Tonight
EXTD=
EXTT0=
EXTT1=
EXTT2=
EXTT3=
EXTT4=
EXTT5=
EXTT6=
EXTT7=
EXTT8=
EXTT9=
EXTT10=
EXTT11=
PLAYORDER=
